<svg width="107" height="44" viewBox="0 0 107 44" fill="none" xmlns="http://www.w3.org/2000/svg">
<rect width="45" height="44" rx="8" fill="#FED103"/>
<path d="M9.09162 19.1818H7.15483V16.8295H4.84091V19.1818H3.44744V20.9716H4.84091V26.4304C4.82812 28.2777 6.17045 29.1854 7.90909 29.1342C8.56747 29.1151 9.02131 28.9872 9.2706 28.9041L8.88068 27.0952C8.75284 27.1271 8.49077 27.1847 8.20312 27.1847C7.62145 27.1847 7.15483 26.9801 7.15483 26.0469V20.9716H9.09162V19.1818ZM17.2846 24.8707C17.2846 26.3665 16.2172 27.108 15.1944 27.108C14.0822 27.108 13.3407 26.3217 13.3407 25.0753V19.1818H11.0268V25.4332C11.0268 27.7919 12.3691 29.1278 14.2995 29.1278C15.7697 29.1278 16.8052 28.3544 17.2527 27.255H17.3549V29H19.5985V19.1818H17.2846V24.8707ZM24.2919 23.2472C24.2919 21.8281 25.1484 21.0099 26.3693 21.0099C27.5646 21.0099 28.2805 21.7962 28.2805 23.1065V29H30.5945V22.7486C30.6009 20.3963 29.2585 19.054 27.2322 19.054C25.7621 19.054 24.7521 19.7571 24.3047 20.8501H24.1896V19.1818H21.978V29H24.2919V23.2472ZM37.2933 29.1918C39.5817 29.1918 41.1541 28.0732 41.5632 26.3665L39.4027 26.1236C39.0895 26.9545 38.3224 27.3892 37.3253 27.3892C35.8295 27.3892 34.8388 26.4048 34.8196 24.7237H41.6591V24.0142C41.6591 20.5689 39.5881 19.054 37.1719 19.054C34.3594 19.054 32.5249 21.1186 32.5249 24.1484C32.5249 27.2294 34.3338 29.1918 37.2933 29.1918ZM34.826 23.1641C34.8963 21.9112 35.8232 20.8565 37.2038 20.8565C38.5334 20.8565 39.4283 21.8281 39.4411 23.1641H34.826Z" fill="#202124"/>
<path d="M61.049 16.9091H58.6903V25.8324H58.5753L52.4134 16.9091H50.2912V30H52.6626V21.0831H52.7713L58.9396 30H61.049V16.9091ZM66.356 30.1982C67.8965 30.1982 68.8169 29.4759 69.2388 28.6513H69.3155V30H71.54V23.429C71.54 20.8338 69.4242 20.054 67.5513 20.054C65.4867 20.054 63.9015 20.9744 63.3901 22.7642L65.5506 23.071C65.7807 22.3999 66.4327 21.8246 67.5641 21.8246C68.638 21.8246 69.226 22.3743 69.226 23.3395V23.3778C69.226 24.0426 68.5293 24.0746 66.7971 24.2599C64.8922 24.4645 63.0705 25.0334 63.0705 27.245C63.0705 29.1754 64.4831 30.1982 66.356 30.1982ZM66.9569 28.4979C65.9917 28.4979 65.3013 28.0568 65.3013 27.2067C65.3013 26.3182 66.0748 25.9474 67.1103 25.8004C67.7175 25.7173 68.932 25.5639 69.2324 25.321V26.478C69.2324 27.571 68.3503 28.4979 66.9569 28.4979ZM78.7694 20.1818H76.8326V17.8295H74.5186V20.1818H73.1252V21.9716H74.5186V27.4304C74.5059 29.2777 75.8482 30.1854 77.5868 30.1342C78.2452 30.1151 78.699 29.9872 78.9483 29.9041L78.5584 28.0952C78.4306 28.1271 78.1685 28.1847 77.8809 28.1847C77.2992 28.1847 76.8326 27.9801 76.8326 27.0469V21.9716H78.7694V20.1818ZM80.7045 30H83.0185V20.1818H80.7045V30ZM81.8679 18.7884C82.603 18.7884 83.2038 18.2259 83.2038 17.5355C83.2038 16.8388 82.603 16.2763 81.8679 16.2763C81.1264 16.2763 80.5256 16.8388 80.5256 17.5355C80.5256 18.2259 81.1264 18.7884 81.8679 18.7884ZM89.6806 30.1918C92.557 30.1918 94.3851 28.1655 94.3851 25.1293C94.3851 22.0866 92.557 20.054 89.6806 20.054C86.8042 20.054 84.976 22.0866 84.976 25.1293C84.976 28.1655 86.8042 30.1918 89.6806 30.1918ZM89.6934 28.3381C88.1017 28.3381 87.3219 26.919 87.3219 25.1229C87.3219 23.3267 88.1017 21.8885 89.6934 21.8885C91.2594 21.8885 92.0392 23.3267 92.0392 25.1229C92.0392 26.919 91.2594 28.3381 89.6934 28.3381ZM98.663 24.2472C98.663 22.8281 99.5195 22.0099 100.74 22.0099C101.936 22.0099 102.652 22.7962 102.652 24.1065V30H104.966V23.7486C104.972 21.3963 103.63 20.054 101.603 20.054C100.133 20.054 99.1232 20.7571 98.6758 21.8501H98.5607V20.1818H96.3491V30H98.663V24.2472Z" fill="#202124"/>
</svg>
